<svg width="21" height="18" viewBox="0 0 21 18" fill="none" xmlns="http://www.w3.org/2000/svg">
<path d="M19 14.0001H5.96746C4.96324 14.0001 4.11474 13.2554 3.98438 12.2597L2.81135 3.29962C2.75041 2.8341 2.52764 2.40486 2.18206 2.08707L1 1.00006" stroke="white" stroke-width="1.5" stroke-linecap="round"/>
<path d="M17.361 12H4.63248C4.30534 12 4.02998 11.7551 3.99175 11.4302L3.01695 3.1441C3.00793 3.06739 3.06786 2.99999 3.1451 2.99999H20.0875C20.5328 2.99999 20.8442 3.44043 20.6958 3.86024L17.9692 11.5699C17.8781 11.8277 17.6344 12 17.361 12Z" fill="white"/>
<ellipse cx="7" cy="16" rx="2" ry="2" fill="white"/>
<ellipse cx="15" cy="16" rx="2" ry="2" fill="white"/>
</svg>
