<svg xmlns="http://www.w3.org/2000/svg" viewBox="0 0 357.36 310.48"><g id="eaed324b-2190-400e-9665-dbb719941ad0" data-name="Layer 2"><g id="f4d4d279-ebfc-4e8a-bd89-036d864b5f5d" data-name="Layer 3"><path d="M7.54,111.3l29.66,8.53-2.05,7.11-12.71-3.66-3.45,12,12.71,3.66L29.65,146,0,137.5l2-7.11,12.29,3.54,3.45-12L5.5,118.4Z" fill="#fff"/><path d="M63.43,72.38a8.61,8.61,0,0,1,2.47,2.78,2,2,0,0,1-.5,2.14L53.12,91.88,29.52,72,43.06,55.92l3.58,3L37.85,69.36l6.07,5.11,7.3-8.67,3.57,3L47.5,77.48l6.81,5.73Z" fill="#fff"/><path d="M113.89,40.15c.45.69.73,1.16.86,1.39a1.08,1.08,0,0,1-.55,1.64l-5.5,2.93L108,44.79A8.83,8.83,0,0,0,104,41.35L87.63,33.11,97.68,52l-6.43,3.43L76.73,28.18l5.85-3.11a2.84,2.84,0,0,1,1-.35,1.74,1.74,0,0,1,1,.27L102,33.63,94.18,18.88l6.44-3.43,11.68,21.9C112.72,38.16,113.26,39.09,113.89,40.15Z" fill="#fff"/><path d="M171.52,13.14l1.57,13.62q-3.87,4.13-11.6,5t-12.21-2.63q-4.44-3.52-5.34-11.32a16.74,16.74,0,0,1,1-8.53,13.84,13.84,0,0,1,5-6.17A18,18,0,0,1,158.33.2a24.77,24.77,0,0,1,6.63,0,13.56,13.56,0,0,1,5.14,1.83,7.08,7.08,0,0,1-1.16,2.79c-.61.93-1.16,1.42-1.64,1.48a2,2,0,0,1-.6,0,5.24,5.24,0,0,1-.78-.27,13.52,13.52,0,0,0-3.45-1,14.57,14.57,0,0,0-3.68,0,7.69,7.69,0,0,0-6.06,3.54q-1.87,3.06-1.26,8.4,1.28,11,9.37,10,3.43-.4,4.76-1.53l-.79-6.83L161.9,19a2.25,2.25,0,0,1-2.22-.78,7.61,7.61,0,0,1-1-3.54Z" fill="#fff"/><path d="M247,41.12q-1.35-5.52,2.29-12.22t8.87-8.35q5.31-1.82,11.35,1.46T277,30.73q1.4,5.44-2.16,12-3.63,6.7-9,8.59T254.4,49.92Q248.37,46.63,247,41.12Zm15.58,4.69q2.73-1.55,5.52-6.71c1.83-3.35,2.66-6,2.52-8.06a5.79,5.79,0,0,0-3.42-4.76,5.79,5.79,0,0,0-5.86-.27q-2.66,1.47-5.39,6.5t-2.61,8.29a6.51,6.51,0,0,0,9.24,5Z" fill="#fff"/><path d="M295.44,77.81q.15-4.44,4.65-8l15.5-12.3,4.6,5.79-16.27,12.9A5.56,5.56,0,0,0,301.59,80a6.29,6.29,0,0,0,1.64,4.44q3.72,4.69,8.18,1.16l16.26-12.9,4.6,5.79-15.51,12.3q-4.54,3.62-8.84,2.79t-8.49-6.13Q295.28,82.26,295.44,77.81Z" fill="#fff"/><path d="M355.52,141.24a3.7,3.7,0,0,1-2.26,0,2,2,0,0,1-1.1-1.45l-1.6-6.23-25.19,6.46L323.55,133l25.2-6.46-2.1-8.18,4.7-1.21,6,23.44A10.59,10.59,0,0,1,355.52,141.24Z" fill="#fff"/><rect x="1.56" y="306" width="353.79" height="4.48" fill="#fff"/><rect x="1.56" y="251.41" width="353.79" height="4.48" fill="#fff"/><path d="M86.53,286.45q0-6.34,3.41-9.94t9.41-3.6a12.4,12.4,0,0,1,7.75,2.33,9.11,9.11,0,0,1,3.58,6.31,9.58,9.58,0,0,1-4.61,1.68,1.76,1.76,0,0,1-1.27-.48,3.52,3.52,0,0,1-.84-1.54,6.22,6.22,0,0,0-1.78-2.85,4.42,4.42,0,0,0-2.83-.84,4.65,4.65,0,0,0-4.15,2.3,12.39,12.39,0,0,0-1.47,6.63q0,4.65,1.47,6.84a5.12,5.12,0,0,0,4.58,2.18,4.24,4.24,0,0,0,3.41-1.47,10.19,10.19,0,0,0,1.87-4.67,5.91,5.91,0,0,1,3.79,1,3.83,3.83,0,0,1,1.16,3.12,5,5,0,0,1-1.42,3.4,9.69,9.69,0,0,1-3.77,2.52,13.4,13.4,0,0,1-5,.94Q86.54,300.27,86.53,286.45Z" fill="#fff"/><path d="M166.19,295.52a6.77,6.77,0,0,0,1.27,3,8.31,8.31,0,0,1-2.59,1.18,10.67,10.67,0,0,1-2.88.45,2.36,2.36,0,0,1-1.92-.86,6,6,0,0,1-1.06-2.73,7.7,7.7,0,0,1-3.07,2.88,10.65,10.65,0,0,1-4.61.86,8.25,8.25,0,0,1-5.66-1.9,6.28,6.28,0,0,1-2.16-5,7,7,0,0,1,3.62-6.46q3.63-2.13,11.64-2.57v-2.5a3.79,3.79,0,0,0-1-2.92,4.47,4.47,0,0,0-3.14-1,8.2,8.2,0,0,0-3,.6,20.13,20.13,0,0,0-3.72,2.09,1.09,1.09,0,0,1-.67.19,2.66,2.66,0,0,1-1.85-1.16,10.83,10.83,0,0,1-1.75-3,14.8,14.8,0,0,1,5.25-2.71,22,22,0,0,1,6.7-1.08q5,0,7.68,2.33a8.31,8.31,0,0,1,2.69,6.64v8A35.67,35.67,0,0,0,166.19,295.52Zm-9.7-.87a9.33,9.33,0,0,0,2.28-3.12V288a13.4,13.4,0,0,0-6,1.32,3.68,3.68,0,0,0-2,3.34,2.88,2.88,0,0,0,.86,2.2,3.14,3.14,0,0,0,2.26.82A4,4,0,0,0,156.49,294.65Z" fill="#fff"/><path d="M209.53,267.49a5.06,5.06,0,0,0-.69,2.88v3h5v4.41h-5v22h-7.11v-22h-4v-4.41h4v-3.07a8.81,8.81,0,0,1,2.14-6.32,8.09,8.09,0,0,1,6.12-2.23,9.32,9.32,0,0,1,4.39.89A2.63,2.63,0,0,1,216,265a4.2,4.2,0,0,1-.19,1.22,2.91,2.91,0,0,1-.53,1,9.32,9.32,0,0,0-3.79-.72A2.27,2.27,0,0,0,209.53,267.49Z" fill="#fff"/><path d="M270.13,287.88h-17a10.52,10.52,0,0,0,1.75,5.67,4.74,4.74,0,0,0,4,2,5.17,5.17,0,0,0,1.85-.29,5.11,5.11,0,0,0,1.54-1,22.79,22.79,0,0,0,2.09-2.43,1.11,1.11,0,0,1,1-.38,4.88,4.88,0,0,1,2,.55,15.23,15.23,0,0,1,2.52,1.56q-3.12,6.72-11,6.72-6,0-9.5-3.67t-3.46-10.06a15.85,15.85,0,0,1,1.56-7.25,11.08,11.08,0,0,1,4.47-4.72,13.6,13.6,0,0,1,6.89-1.66c3.68,0,6.52,1,8.54,3.12s3,5,3,8.83C270.37,285.31,270.29,286.32,270.13,287.88Zm-7-4c0-4.28-1.5-6.43-4.51-6.43a4.62,4.62,0,0,0-3.69,1.63,8.66,8.66,0,0,0-1.73,4.8Z" fill="#fff"/><ellipse cx="178.45" cy="226.03" rx="102.46" ry="15.86" fill="#fff"/><ellipse cx="178.45" cy="226.03" rx="65.81" ry="10.19" fill="#003554"/><path d="M178.45,236.72c-17.6,0-34.15-1.06-46.61-3-9-1.39-19.69-3.86-19.69-7.7s10.71-6.31,19.69-7.7c12.46-1.93,29-3,46.61-3s34.16,1.06,46.61,3c9,1.39,19.7,3.86,19.7,7.7s-10.71,6.31-19.7,7.7C212.61,235.66,196.06,236.72,178.45,236.72Zm0-20.38c-39.06,0-65.3,5-65.3,9.69s26.24,9.69,65.3,9.69,65.31-5,65.31-9.69S217.52,216.34,178.45,216.34Z" fill="#231f20"/><path d="M100.87,132.68H256a0,0,0,0,1,0,0V158a68,68,0,0,1-68,68H168.86a68,68,0,0,1-68-68V132.68a0,0,0,0,1,0,0Z" fill="#fff"/><path d="M269.36,154.7a2.5,2.5,0,0,1,0-5c7.82,0,14.18-5.68,14.18-12.67s-6.36-12.67-14.18-12.67H118.45a2.5,2.5,0,0,1,0-5H269.36c10.58,0,19.18,7.93,19.18,17.67S279.94,154.7,269.36,154.7Z" fill="#fff"/><path d="M162.63,69.41s8.17,4.75,8.53,12c.4,7.93-4,10.69-4,10.69s-11,8.45-8.53,14.25-.15-8,11.72-10C185.57,93.76,173,69.33,162.63,69.41Z" fill="#fff"/><path d="M183.26,85.38s9-.9,11.24,7.73-11.87,4.94-7.11,23c0,0,.18-6.52,8.76-12.18C205.57,97.75,200.58,84.2,183.26,85.38Z" fill="#fff"/></g></g></svg>